<svg width="37" height="36" viewBox="0 0 37 36" fill="none" xmlns="http://www.w3.org/2000/svg" >
        <mask id="mask0_3778_8103" maskUnits="userSpaceOnUse" x="0" y="0" width="37" height="36">
        <rect x="0.5" width="36" height="36" fill="#D9D9D9"/>
        </mask>
        <g mask="url(#mask0_3778_8103)">
        <path d="M8 31.5C7.175 31.5 6.46875 31.2063 5.88125 30.6188C5.29375 30.0312 5 29.325 5 28.5V7.5C5 6.675 5.29375 5.96875 5.88125 5.38125C6.46875 4.79375 7.175 4.5 8 4.5H29C29.825 4.5 30.5312 4.79375 31.1188 5.38125C31.7063 5.96875 32 6.675 32 7.5V28.5C32 29.325 31.7063 30.0312 31.1188 30.6188C30.5312 31.2063 29.825 31.5 29 31.5H8ZM8 28.5H29V7.5H8V28.5ZM9.5 25.5H27.5L21.875 18L17.375 24L14 19.5L9.5 25.5Z" fill="#979797"/>
        </g>
</svg>