<svg width="37" height="36" viewBox="0 0 37 36" fill="none" xmlns="http://www.w3.org/2000/svg">
    <mask id="mask0_3778_8067" x="0" y="0" width="37" height="36">
        <rect x="0.5" width="36" height="36" fill="#D9D9D9"/>
    </mask>
    <g mask="url(#mask0_3778_8067)">
        <path d="M21.6125 17.5875C23.4375 16.2375 24.8625 14.7563 25.8875 13.1438C26.9125 11.5312 27.425 9.925 27.425 8.325C27.425 7.525 27.2938 6.9375 27.0312 6.5625C26.7687 6.1875 26.4125 6 25.9625 6C24.7875 6 23.75 6.99375 22.85 8.98125C21.95 10.9688 21.5 13.2125 21.5 15.7125C21.5 16.0625 21.5063 16.3938 21.5187 16.7062C21.5312 17.0187 21.5625 17.3125 21.6125 17.5875ZM5 31.5V28.5H8V31.5H5ZM11 31.5V28.5H14V31.5H11ZM17 31.5V28.5H20V31.5H17ZM23 31.5V28.5H26V31.5H23ZM29 31.5V28.5H32V31.5H29ZM5.6 25.5L3.5 23.4L5.9 21L3.5 18.6L5.6 16.5L8 18.9L10.4 16.5L12.5 18.6L10.1 21L12.5 23.4L10.4 25.5L8 23.1L5.6 25.5ZM23.675 24C22.925 24 22.2375 23.8563 21.6125 23.5688C20.9875 23.2812 20.45 22.8125 20 22.1625C19.375 22.5125 18.7313 22.825 18.0688 23.1C17.4063 23.375 16.725 23.65 16.025 23.925L14.975 21.1125C15.675 20.8625 16.3438 20.5938 16.9813 20.3063C17.6188 20.0188 18.2375 19.7125 18.8375 19.3875C18.7125 18.8375 18.6188 18.2375 18.5563 17.5875C18.4938 16.9375 18.4625 16.2375 18.4625 15.4875C18.4625 11.8875 19.175 8.90625 20.6 6.54375C22.025 4.18125 23.8125 3 25.9625 3C27.2625 3 28.325 3.48125 29.15 4.44375C29.975 5.40625 30.3875 6.75 30.3875 8.475C30.3875 10.625 29.7062 12.75 28.3438 14.85C26.9813 16.95 25.0875 18.8375 22.6625 20.5125C22.8375 20.6875 23.0187 20.8188 23.2062 20.9062C23.3937 20.9937 23.5875 21.0375 23.7875 21.0375C24.4375 21.0375 25.1938 20.625 26.0563 19.8C26.9188 18.975 27.7 17.8875 28.4 16.5375L31.1375 17.8125C30.9625 18.2375 30.825 18.75 30.725 19.35C30.625 19.95 30.6375 20.475 30.7625 20.925C31.0125 20.8 31.3063 20.5875 31.6438 20.2875C31.9813 19.9875 32.325 19.6125 32.675 19.1625L35.0375 21C34.3875 21.9 33.6375 22.625 32.7875 23.175C31.9375 23.725 31.15 24 30.425 24C29.9 24 29.4313 23.8438 29.0188 23.5312C28.6063 23.2188 28.2625 22.7375 27.9875 22.0875C27.2875 22.7125 26.575 23.1875 25.85 23.5125C25.125 23.8375 24.4 24 23.675 24Z"
              fill="#979797"/>
    </g>
</svg>